<?xml version="1.0"?>
<svg xmlns="http://www.w3.org/2000/svg" viewBox="0 0 64 64" width="512" height="512"><g id="Working_Hours" data-name="Working Hours"><path d="M62,32A29.991,29.991,0,1,0,43.16,59.85,11.989,11.989,0,0,0,59.85,43.16,29.828,29.828,0,0,0,62,32ZM32,60A27.993,27.993,0,1,1,58.37,41.42a12.3,12.3,0,0,0-1.67-1.37A25.749,25.749,0,0,0,58,32,26,26,0,1,0,32,58a25.749,25.749,0,0,0,8.05-1.3,12.3,12.3,0,0,0,1.37,1.67A27.774,27.774,0,0,1,32,60Zm7.07-5.08A24.058,24.058,0,1,1,54.92,39.07,11.973,11.973,0,0,0,39.07,54.92ZM60,50A10,10,0,1,1,50,40,10.016,10.016,0,0,1,60,50Z"/><path d="M49,48a3,3,0,0,0-6,0,2.974,2.974,0,0,0,.78,2A2.974,2.974,0,0,0,43,52a3,3,0,0,0,6,0,2.974,2.974,0,0,0-.78-2A2.974,2.974,0,0,0,49,48Zm-3,5a1,1,0,1,1,1-1A1,1,0,0,1,46,53Zm0-4a1,1,0,1,1,1-1A1,1,0,0,1,46,49Z"/><path d="M57,51v3a1,1,0,0,1-2,0V51a1,1,0,0,0-2,0v3a1,1,0,0,1-2,0V46a1,1,0,0,1,2,0v2.18A2.98,2.98,0,0,1,57,51Z"/><path d="M33,28.142V17a1,1,0,0,0-2,0V28.142a3.916,3.916,0,0,0-2.839,4.92l-4.455,2.572a1,1,0,1,0,1,1.732L29.151,34.8A3.993,3.993,0,1,0,33,28.142ZM32,34a2,2,0,1,1,2-2A2,2,0,0,1,32,34Z"/><path d="M32,13a1,1,0,0,0,1-1V10a1,1,0,0,0-2,0v2A1,1,0,0,0,32,13Z"/><path d="M21.866,12.447a1,1,0,0,0-1.732,1l1,1.733a1,1,0,1,0,1.732-1Z"/><path d="M15.18,21.134l-1.733-1a1,1,0,0,0-1,1.732l1.733,1a1,1,0,1,0,1-1.732Z"/><path d="M13,32a1,1,0,0,0-1-1H10a1,1,0,0,0,0,2h2A1,1,0,0,0,13,32Z"/><path d="M14.18,41.134l-1.733,1a1,1,0,1,0,1,1.732l1.733-1a1,1,0,1,0-1-1.732Z"/><path d="M22.5,48.454a1,1,0,0,0-1.366.366l-1,1.733a1,1,0,1,0,1.732,1l1-1.733A1,1,0,0,0,22.5,48.454Z"/><path d="M32,51a1,1,0,0,0-1,1v2a1,1,0,0,0,2,0V52A1,1,0,0,0,32,51Z"/><path d="M51,32a1,1,0,0,0,1,1h2a1,1,0,0,0,0-2H52A1,1,0,0,0,51,32Z"/><path d="M48.454,22.5a1,1,0,0,0,1.366.366l1.733-1a1,1,0,0,0-1-1.732l-1.733,1A1,1,0,0,0,48.454,22.5Z"/><path d="M43.5,12.081a1,1,0,0,0-1.366.366l-1,1.733a1,1,0,1,0,1.732,1l1-1.733A1,1,0,0,0,43.5,12.081Z"/></g></svg>
