<?xml version="1.0" encoding="utf-8"?>
<!-- Generator: Adobe Illustrator 22.1.0, SVG Export Plug-In . SVG Version: 6.00 Build 0)  -->
<svg version="1.1" id="Слой_1" xmlns="http://www.w3.org/2000/svg" xmlns:xlink="http://www.w3.org/1999/xlink" x="0px" y="0px"
	 viewBox="0 0 267.3 50" style="enable-background:new 0 0 267.3 50;" xml:space="preserve">
<style type="text/css">
	.st0{fill:#1976D2;}
	.st1{fill:#FF5252;}
	.st2{fill:#313131;}
</style>
<g>
	<g>
		<path class="st0" d="M17.6,2.2C20,1.4,22.5,1,25,1c4,0,7.9,1,11.4,2.9l-6.3,6.4c-5.4,5.4-10.9,11-12.5,12.5
			C17.6,22.8,17.6,2.2,17.6,2.2z"/>
		<path class="st1" d="M38.6,42.4C32.1,35.9,24,28,22.8,26.7c1.2-1.2,18.9-19,18.9-19c4.7,4.6,7.3,10.7,7.3,17.2
			c0,7.4-3.3,14.2-9,18.8L38.6,42.4z"/>
		<path class="st0" d="M25,49c-2.5,0-5-0.4-7.4-1.2V30.7c1.3,1.3,5.5,5.5,10,9.9l6.6,6.6C31.3,48.4,28.2,49,25,49z"/>
		<path class="st0" d="M11.2,44.6C4.8,40.1,1,32.8,1,25S4.8,9.9,11.2,5.4V44.6z"/>
	</g>
</g>
<g>
	<path class="st2" d="M68.9,39.6h-5.1V10.4h5.1v13.8l11.4-13.8h6.2L74.5,24l12.8,15.5h-6.5l-11.9-15V39.6z"/>
	<path class="st2" d="M87.8,25c0-4.3,1.5-7.8,4.3-10.6C95,11.5,98.6,10,103,10c4.5,0,8,1.5,10.8,4.2c2.9,2.8,4.4,6.4,4.4,10.8
		s-1.5,7.9-4.4,10.7S107.3,40,103,40c-4.5,0-8-1.5-10.8-4.2C89.3,33.1,87.8,29.5,87.8,25z M93.2,25c0,2.9,0.9,5.3,2.7,7.4
		c1.8,1.9,4.2,2.9,6.9,2.9c3,0,5.3-1,7.1-2.9c1.8-1.9,2.7-4.5,2.7-7.4c0-3-0.9-5.4-2.8-7.4s-4.2-2.8-6.9-2.8c-2.8,0-5.1,0.9-7,2.8
		C94.2,19.6,93.2,22,93.2,25z"/>
	<path class="st2" d="M145.3,39.6h-5.1V15.2h-8.5l-0.6,5.5c-0.3,3.3-0.8,6.2-1.3,8.5s-1.1,4.3-1.7,5.7c-0.7,1.5-1.5,2.5-2.2,3.3
		c-0.9,0.8-1.7,1.3-2.7,1.5c-0.9,0.2-2,0.2-3.3,0l0.1-5.1c0.6,0.1,1.1,0.1,1.5-0.1c0.4-0.2,0.9-0.5,1.4-1.2c0.6-0.8,1.1-1.6,1.5-2.8
		c1-3,1.7-7.6,2.1-14.1l0.4-5.8h18.2L145.3,39.6L145.3,39.6z"/>
	<path class="st2" d="M151.2,25c0-4.3,1.5-7.8,4.3-10.6c2.9-2.9,6.5-4.4,10.9-4.4c4.5,0,8,1.5,10.8,4.2c2.9,2.8,4.4,6.4,4.4,10.8
		s-1.5,7.9-4.4,10.7s-6.5,4.3-10.8,4.3c-4.5,0-8-1.5-10.8-4.2C152.7,33.1,151.2,29.5,151.2,25z M156.6,25c0,2.9,0.9,5.3,2.7,7.4
		c1.8,1.9,4.2,2.9,6.9,2.9c3,0,5.3-1,7.1-2.9c1.8-1.9,2.7-4.5,2.7-7.4c0-3-0.9-5.4-2.8-7.4c-1.9-1.9-4.2-2.8-6.9-2.8
		c-2.8,0-5.1,0.9-7,2.8C157.5,19.6,156.6,22,156.6,25z"/>
	<path class="st2" d="M192.5,29v10.5h-5.1V10.4c1.3,0,2.5,0,3.9-0.1c1.5,0,2.9,0,4.4,0c2.1,0,3.9,0.3,5.3,0.8
		c1.5,0.5,2.7,1.3,3.5,2.1c0.9,0.9,1.5,1.9,1.8,2.9c0.4,1.1,0.6,2.2,0.6,3.5c0,2.7-0.9,4.8-2.8,6.7c-1.8,1.8-4.5,2.7-7.8,2.7
		C194.6,29.2,193.3,29.1,192.5,29z M196.2,15.1l-3.7,0.1v8.9c1.5,0.2,2.7,0.2,3.6,0.2c1.6,0,2.9-0.4,3.9-1.2c1-0.9,1.5-2,1.5-3.5
		C201.5,16.7,199.8,15.1,196.2,15.1z"/>
	<path class="st2" d="M232.6,18.9l-15.3,20.7h-4.5V10.4h5.1v20.7l15.3-20.7h4.5v29.1h-5.1V18.9C232.7,18.9,232.6,18.9,232.6,18.9z"
		/>
	<path class="st2" d="M251.6,15.2h-9.4v-4.8h24v4.7h-9.4v24.3h-5.1L251.6,15.2L251.6,15.2z"/>
</g>
</svg>
