<?xml version="1.0" encoding="UTF-8" standalone="no"?> <svg width="64" height="64" viewBox="0 0 64 64" fill="none" xmlns="http://www.w3.org/2000/svg">
<path d="M60.12 31.3L49.12 20.3C48.5531 19.7482 47.7911 19.4427 47 19.45H39.71C38.9143 19.45 38.1513 19.7661 37.5887 20.3287C37.0261 20.8913 36.71 21.6544 36.71 22.45V36.59H33.94V6.59003C33.94 6.32481 33.8346 6.07046 33.6471 5.88292C33.4596 5.69538 33.2052 5.59003 32.94 5.59003H7.71C7.44478 5.59003 7.19043 5.69538 7.00289 5.88292C6.81536 6.07046 6.71 6.32481 6.71 6.59003V36.59H6C5.20435 36.59 4.44129 36.9061 3.87868 37.4687C3.31607 38.0313 3 38.7944 3 39.59V49.74C3 50.5357 3.31607 51.2987 3.87868 51.8613C4.44129 52.424 5.20435 52.74 6 52.74H8.62C8.91878 54.3223 9.76074 55.7505 11.0005 56.778C12.2402 57.8055 13.7998 58.3678 15.41 58.3678C17.0202 58.3678 18.5798 57.8055 19.8195 56.778C21.0593 55.7505 21.9012 54.3223 22.2 52.74H42.06C42.3643 54.3191 43.209 55.7429 44.449 56.7667C45.689 57.7906 47.2469 58.3507 48.855 58.3507C50.4631 58.3507 52.021 57.7906 53.261 56.7667C54.501 55.7429 55.3457 54.3191 55.65 52.74H58C58.7956 52.74 59.5587 52.424 60.1213 51.8613C60.6839 51.2987 61 50.5357 61 49.74V33.42C60.9993 32.6246 60.6828 31.8621 60.12 31.3V31.3ZM23.43 7.63003V13.42L21.08 10.71C20.9861 10.6019 20.8701 10.5153 20.7399 10.4559C20.6096 10.3965 20.4682 10.3658 20.325 10.3658C20.1818 10.3658 20.0404 10.3965 19.9101 10.4559C19.7799 10.5153 19.6639 10.6019 19.57 10.71L17.22 13.42V7.63003H23.43ZM8.71 7.63003H15.22V16.09C15.2203 16.293 15.2824 16.4911 15.3979 16.658C15.5135 16.8249 15.6772 16.9526 15.8671 17.0243C16.0571 17.0959 16.2643 17.108 16.4613 17.059C16.6583 17.0101 16.8357 16.9023 16.97 16.75L20.33 12.89L23.68 16.75C23.8143 16.9023 23.9917 17.0101 24.1887 17.059C24.3857 17.108 24.5929 17.0959 24.7829 17.0243C24.9728 16.9526 25.1365 16.8249 25.2521 16.658C25.3676 16.4911 25.4297 16.293 25.43 16.09V7.63003H31.94V36.63H8.71V7.63003ZM5 49.74V39.59C5 39.3248 5.10536 39.0705 5.29289 38.8829C5.48043 38.6954 5.73478 38.59 6 38.59H36.71V50.74H22.29C22.1068 49.0432 21.303 47.474 20.033 46.3338C18.7631 45.1937 17.1167 44.563 15.41 44.563C13.7033 44.563 12.0569 45.1937 10.787 46.3338C9.51703 47.474 8.71324 49.0432 8.53 50.74H6C5.73478 50.74 5.48043 50.6347 5.29289 50.4471C5.10536 50.2596 5 50.0052 5 49.74ZM15.41 56.37C14.4369 56.37 13.4857 56.0815 12.6766 55.5409C11.8675 55.0002 11.2369 54.2318 10.8645 53.3328C10.4921 52.4338 10.3947 51.4446 10.5845 50.4902C10.7744 49.5358 11.243 48.6591 11.931 47.9711C12.6191 47.283 13.4958 46.8144 14.4502 46.6246C15.4045 46.4347 16.3938 46.5322 17.2928 46.9045C18.1918 47.2769 18.9602 47.9075 19.5008 48.7166C20.0414 49.5257 20.33 50.4769 20.33 51.45C20.3274 52.7541 19.8082 54.004 18.886 54.9261C17.9639 55.8482 16.7141 56.3674 15.41 56.37ZM48.86 56.37C47.8869 56.37 46.9357 56.0815 46.1266 55.5409C45.3175 55.0002 44.6869 54.2318 44.3145 53.3328C43.9421 52.4338 43.8447 51.4446 44.0345 50.4902C44.2244 49.5358 44.693 48.6591 45.381 47.9711C46.0691 47.283 46.9458 46.8144 47.9002 46.6246C48.8545 46.4347 49.8438 46.5322 50.7428 46.9045C51.6418 47.2769 52.4102 47.9075 52.9508 48.7166C53.4914 49.5257 53.78 50.4769 53.78 51.45C53.78 52.7549 53.2616 54.0063 52.339 54.929C51.4163 55.8517 50.1649 56.37 48.86 56.37V56.37ZM59 49.74C59 50.0052 58.8946 50.2596 58.7071 50.4471C58.5196 50.6347 58.2652 50.74 58 50.74H55.74C55.5677 49.0337 54.768 47.4522 53.4959 46.3021C52.2238 45.1519 50.57 44.5151 48.855 44.5151C47.14 44.5151 45.4862 45.1519 44.2141 46.3021C42.942 47.4522 42.1423 49.0337 41.97 50.74H38.71V22.45C38.71 22.1848 38.8154 21.9305 39.0029 21.7429C39.1904 21.5554 39.4448 21.45 39.71 21.45H47C47.2648 21.4537 47.5184 21.5573 47.71 21.74L58.71 32.74C58.8027 32.8335 58.876 32.9443 58.9258 33.0661C58.9755 33.188 59.0008 33.3184 59 33.45V49.74Z" fill="black"/>
<path d="M46.05 25.82C45.9574 25.7255 45.847 25.6504 45.7251 25.5989C45.6032 25.5474 45.4723 25.5206 45.34 25.52H43.79C43.5248 25.52 43.2705 25.6254 43.0829 25.8129C42.8954 26.0004 42.79 26.2548 42.79 26.52V38.67C42.79 38.9352 42.8954 39.1896 43.0829 39.3771C43.2705 39.5647 43.5248 39.67 43.79 39.67H53.93C54.1953 39.67 54.4496 39.5647 54.6371 39.3771C54.8247 39.1896 54.93 38.9352 54.93 38.67V35.11C54.9308 34.9784 54.9056 34.8479 54.8558 34.7261C54.806 34.6043 54.7327 34.4935 54.64 34.4L46.05 25.82ZM52.93 37.67H44.79V27.52H44.93L52.93 35.52V37.67Z" fill="black"/>
</svg>
