<?xml version="1.0" encoding="utf-8"?>
<!-- Generator: Adobe Illustrator 22.1.0, SVG Export Plug-In . SVG Version: 6.00 Build 0)  -->
<svg version="1.1" id="Capa_1" xmlns="http://www.w3.org/2000/svg" xmlns:xlink="http://www.w3.org/1999/xlink" x="0px" y="0px"
	 viewBox="0 0 512 512" style="enable-background:new 0 0 512 512;" xml:space="preserve">
<style type="text/css">
	.st0{fill:#F8A42D;}
</style>
<g>
	<g>
		<path class="st0" d="M329.1,209c-1.9-1.9-4.4-2.9-7.1-2.9s-5.2,1.1-7.1,2.9c-1.9,1.9-2.9,4.4-2.9,7.1c0,2.6,1.1,5.2,2.9,7.1
			c1.9,1.9,4.4,2.9,7.1,2.9s5.2-1.1,7.1-2.9c1.9-1.9,2.9-4.4,2.9-7.1C332,213.5,330.9,210.9,329.1,209z"/>
	</g>
</g>
<g>
	<g>
		<path class="st0" d="M460,420l-32.8-165.8c-0.9-4.7-5-8.1-9.8-8.1H94.9c-4.8,0-8.9,3.4-9.8,8L52,420c-0.6,2.9,0.2,6,2.1,8.3
			s4.7,3.7,7.7,3.7h388.4c3,0,5.8-1.3,7.7-3.7C459.9,426,460.6,422.9,460,420z M103.1,266.1h306.1l4,20.1H99.1L103.1,266.1z
			 M74,411.9l21.1-105.8h322L438,411.9H74L74,411.9z"/>
	</g>
</g>
<g>
	<g>
		<path class="st0" d="M511.8,459.8L511.8,459.8L458.1,214c-1-4.6-5.1-7.9-9.8-7.9H366c-5.5,0-10,4.5-10,10s4.5,10,10,10h74.3
			l49.3,225.8H22.4L72,226.1h112.3c5.5,0,10-4.5,10-10s-4.5-10-10-10H64c-4.7,0-8.8,3.3-9.8,7.9l-54,245.8l0,0
			c-0.1,0.4-0.1,0.7-0.2,1.1l0,0c0,0.3-0.1,0.7-0.1,1V502c0,5.5,4.5,10,10,10h55.7c5.5,0,10-4.5,10-10s-4.5-10-10-10H20v-20.1h472
			V492H149.7c-5.5,0-10,4.5-10,10s4.5,10,10,10H502c5.5,0,10-4.5,10-10v-40.1C512,461.2,511.9,460.5,511.8,459.8z"/>
	</g>
</g>
<g>
	<g>
		<path class="st0" d="M114.1,494.9c-1.9-1.9-4.4-2.9-7.1-2.9c-2.6,0-5.2,1.1-7.1,2.9c-1.9,1.9-2.9,4.4-2.9,7.1s1.1,5.2,2.9,7.1
			c1.9,1.9,4.4,2.9,7.1,2.9c2.6,0,5.2-1.1,7.1-2.9c1.9-1.9,2.9-4.4,2.9-7.1S115.9,496.8,114.1,494.9z"/>
	</g>
</g>
<g>
	<g>
		<path class="st0" d="M319.5,75.1C319.5,75.1,319.4,75.1,319.5,75.1L263.9,3.8C262,1.4,259.1,0,256,0l0,0c-3.1,0-6,1.4-7.9,3.8
			l-55.3,70.8c-0.1,0.2-0.2,0.3-0.3,0.5c-11.7,14.5-18.1,32.6-18.1,51.3c0,45,36.6,81.6,81.6,81.6s81.6-36.6,81.6-81.6
			C337.6,107.8,331.2,89.6,319.5,75.1z M256,188c-34,0-61.6-27.6-61.6-61.6c0-14.3,5-28.2,14.1-39.2c0.2-0.3,0.4-0.6,0.6-0.9
			l46.9-60l47.5,60.9c0.1,0.1,0.2,0.3,0.3,0.4c8.9,10.9,13.8,24.8,13.8,38.9C317.6,160.4,290,188,256,188z"/>
	</g>
</g>
</svg>
