<svg height="512" viewBox="0 0 64 64" width="512" xmlns="http://www.w3.org/2000/svg"><g id="Layer_43" data-name="Layer 43"><path d="m9 48h2v2h-2z"/><path d="m53 48h2v2h-2z"/><path d="m53 52h2v2h-2z"/><path d="m9 52h2v2h-2z"/><path d="m58 44.84v-29.84a3.009 3.009 0 0 0 -3-3h-10.36a12.988 12.988 0 0 0 -25.28 0h-10.36a3.009 3.009 0 0 0 -3 3v29.84l-4 12v2.16a3.009 3.009 0 0 0 3 3h54a3.009 3.009 0 0 0 3-3v-2.16zm-26-40.84a11.007 11.007 0 0 1 11 11c0 3.19-4.85 11.08-11 21.08-6.15-10-11-17.9-11-21.08a11.007 11.007 0 0 1 11-11zm-12.37 14c1.37 3.89 4.96 9.85 10.66 19.13a2.014 2.014 0 0 0 3.42 0c5.7-9.28 9.3-15.24 10.66-19.13h7.63v22h-40v-22zm-11.63-3a1 1 0 0 1 1-1h10.05c-.02.33-.05.66-.05 1a6.045 6.045 0 0 0 .1 1h-8.1a1 1 0 0 0 -1 1v24a1 1 0 0 0 1 1h42a1 1 0 0 0 1-1v-24a1 1 0 0 0 -1-1h-8.1a6.045 6.045 0 0 0 .1-1c0-.34-.03-.67-.05-1h10.05a1 1 0 0 1 1 1v29h-48zm-.28 31h48.56l3.33 10h-19.83l-.81-3.24a1 1 0 0 0 -.97-.76h-12a1 1 0 0 0 -.97.76l-.81 3.24h-19.83zm30 10h-11.44l.5-2h10.44zm22.28 3a1 1 0 0 1 -1 1h-54a1 1 0 0 1 -1-1v-1h56z"/><path d="m37 48h2v2h-2z"/><path d="m13 48h2v2h-2z"/><path d="m17 48h2v2h-2z"/><path d="m21 48h2v2h-2z"/><path d="m41 48h2v2h-2z"/><path d="m45 48h2v2h-2z"/><path d="m49 48h2v2h-2z"/><path d="m25 48h2v2h-2z"/><path d="m29 48h2v2h-2z"/><path d="m33 48h2v2h-2z"/><path d="m49 52h2v2h-2z"/><path d="m45 52h2v2h-2z"/><path d="m41 52h2v2h-2z"/><path d="m13 52h2v2h-2z"/><path d="m17 52h2v2h-2z"/><path d="m21 52h2v2h-2z"/><path d="m38 15a6 6 0 1 0 -6 6 6.006 6.006 0 0 0 6-6zm-10 0a4 4 0 1 1 4 4 4 4 0 0 1 -4-4z"/></g></svg>