<?xml version="1.0" encoding="UTF-8" standalone="no"?> <svg width="64" height="64" viewBox="0 0 64 64" fill="none" xmlns="http://www.w3.org/2000/svg">
<path d="M57.7999 3H16.08C15.8147 3 15.5604 3.10536 15.3728 3.29289C15.1853 3.48043 15.08 3.73478 15.08 4V28.25H6.19995C5.93473 28.25 5.68038 28.3554 5.49284 28.5429C5.30531 28.7304 5.19995 28.9848 5.19995 29.25V55.5C5.19995 56.9587 5.77941 58.3576 6.81086 59.3891C7.84231 60.4205 9.24126 61 10.7 61H53.2999C54.7586 61 56.1576 60.4205 57.189 59.3891C58.2205 58.3576 58.7999 56.9587 58.7999 55.5V4C58.7999 3.73478 58.6946 3.48043 58.5071 3.29289C58.3195 3.10536 58.0652 3 57.7999 3V3ZM15.08 55.5C15.08 55.9596 14.9894 56.4148 14.8135 56.8394C14.6376 57.264 14.3798 57.6499 14.0548 57.9749C13.7298 58.2999 13.344 58.5577 12.9193 58.7336C12.4947 58.9095 12.0396 59 11.58 59H10.7C10.2403 59 9.7852 58.9095 9.36056 58.7336C8.93592 58.5577 8.55008 58.2999 8.22508 57.9749C7.90007 57.6499 7.64226 57.264 7.46637 56.8394C7.29048 56.4148 7.19995 55.9596 7.19995 55.5V30.25H15.08V55.5ZM56.7999 55.5C56.7999 55.9596 56.7094 56.4148 56.5335 56.8394C56.3576 57.264 56.0998 57.6499 55.7748 57.9749C55.4498 58.2999 55.064 58.5577 54.6393 58.7336C54.2147 58.9095 53.7596 59 53.2999 59H17.08V5H56.7999V55.5Z" fill="black"/>
<path d="M22.2 34.79H52C52.2652 34.79 52.5195 34.6846 52.7071 34.4971C52.8946 34.3095 53 34.0552 53 33.79C53 33.5248 52.8946 33.2704 52.7071 33.0829C52.5195 32.8953 52.2652 32.79 52 32.79H22.2C21.9347 32.79 21.6804 32.8953 21.4928 33.0829C21.3053 33.2704 21.2 33.5248 21.2 33.79C21.2 34.0552 21.3053 34.3095 21.4928 34.4971C21.6804 34.6846 21.9347 34.79 22.2 34.79Z" fill="black"/>
<path d="M22.2 41.39H52C52.2652 41.39 52.5195 41.2847 52.7071 41.0971C52.8946 40.9096 53 40.6552 53 40.39C53 40.1248 52.8946 39.8704 52.7071 39.6829C52.5195 39.4954 52.2652 39.39 52 39.39H22.2C21.9347 39.39 21.6804 39.4954 21.4928 39.6829C21.3053 39.8704 21.2 40.1248 21.2 40.39C21.2 40.6552 21.3053 40.9096 21.4928 41.0971C21.6804 41.2847 21.9347 41.39 22.2 41.39Z" fill="black"/>
<path d="M22.2 48H52C52.2652 48 52.5195 47.8946 52.7071 47.7071C52.8946 47.5196 53 47.2652 53 47C53 46.7348 52.8946 46.4804 52.7071 46.2929C52.5195 46.1054 52.2652 46 52 46H22.2C21.9347 46 21.6804 46.1054 21.4928 46.2929C21.3053 46.4804 21.2 46.7348 21.2 47C21.2 47.2652 21.3053 47.5196 21.4928 47.7071C21.6804 47.8946 21.9347 48 22.2 48Z" fill="black"/>
<path d="M52 52.61H39.76C39.4948 52.61 39.2404 52.7153 39.0529 52.9029C38.8654 53.0904 38.76 53.3448 38.76 53.61C38.76 53.8752 38.8654 54.1296 39.0529 54.3171C39.2404 54.5046 39.4948 54.61 39.76 54.61H52C52.2652 54.61 52.5196 54.5046 52.7071 54.3171C52.8947 54.1296 53 53.8752 53 53.61C53 53.3448 52.8947 53.0904 52.7071 52.9029C52.5196 52.7153 52.2652 52.61 52 52.61Z" fill="black"/>
<path d="M29.3199 30.25H44.5599C44.9901 30.2512 45.4152 30.1568 45.8043 29.9734C46.1935 29.7901 46.537 29.5225 46.8099 29.19C47.0861 28.8581 47.2836 28.4679 47.3875 28.0488C47.4914 27.6297 47.4991 27.1925 47.4099 26.77L45.3399 16.38C45.2108 15.7143 44.8555 15.1137 44.3343 14.68C43.8131 14.2463 43.158 14.006 42.4799 14H42.2599V13.4C42.2599 11.989 41.6994 10.6359 40.7017 9.63818C39.704 8.64049 38.3509 8.07999 36.9399 8.07999C35.529 8.07999 34.1758 8.64049 33.1781 9.63818C32.1804 10.6359 31.6199 11.989 31.6199 13.4V14H31.3999C30.7282 14.0027 30.078 14.2369 29.5588 14.6632C29.0397 15.0894 28.6833 15.6816 28.5499 16.34L26.4699 26.77C26.3858 27.1927 26.396 27.6287 26.4997 28.047C26.6034 28.4653 26.7981 28.8556 27.0699 29.19C27.3429 29.5225 27.6864 29.7901 28.0755 29.9734C28.4647 30.1568 28.8898 30.2512 29.3199 30.25V30.25ZM33.6199 13.4C33.6199 12.964 33.7058 12.5323 33.8727 12.1295C34.0395 11.7267 34.284 11.3607 34.5923 11.0524C34.9006 10.7441 35.2666 10.4996 35.6694 10.3327C36.0722 10.1659 36.5039 10.08 36.9399 10.08C37.3759 10.08 37.8076 10.1659 38.2104 10.3327C38.6132 10.4996 38.9792 10.7441 39.2875 11.0524C39.5958 11.3607 39.8404 11.7267 40.0072 12.1295C40.1741 12.5323 40.2599 12.964 40.2599 13.4V14H33.6199V13.4ZM28.4299 27.16L30.5099 16.77C30.5431 16.557 30.6507 16.3628 30.8137 16.2218C30.9767 16.0807 31.1844 16.0022 31.3999 16H31.6199V17.42C31.6199 17.6852 31.7253 17.9396 31.9128 18.1271C32.1004 18.3146 32.3547 18.42 32.6199 18.42C32.8851 18.42 33.1395 18.3146 33.327 18.1271C33.5146 17.9396 33.6199 17.6852 33.6199 17.42V16H40.2599V17.42C40.2599 17.6852 40.3653 17.9396 40.5528 18.1271C40.7404 18.3146 40.9947 18.42 41.2599 18.42C41.5251 18.42 41.7795 18.3146 41.967 18.1271C42.1546 17.9396 42.2599 17.6852 42.2599 17.42V16H42.4799C42.6904 16.0019 42.894 16.0751 43.0575 16.2077C43.221 16.3403 43.3347 16.5244 43.3799 16.73L45.4499 27.12C45.4499 27.83 45.2599 28.12 44.5599 28.21H29.3199C28.6299 28.15 28.3999 27.87 28.4299 27.16Z" fill="black"/>
</svg>
