<?xml version="1.0" encoding="utf-8"?>
<!-- Generator: Adobe Illustrator 22.1.0, SVG Export Plug-In . SVG Version: 6.00 Build 0)  -->
<svg version="1.1" id="Слой_1" xmlns="http://www.w3.org/2000/svg" xmlns:xlink="http://www.w3.org/1999/xlink" x="0px" y="0px"
	 viewBox="0 0 256 256" style="enable-background:new 0 0 256 256;" xml:space="preserve">
<style type="text/css">
	.st0{fill:#FFFFFF;}
</style>
<desc>Created with Fabric.js 1.7.22</desc>
<g transform="translate(128 128) scale(0.72 0.72)">
	<g transform="translate(-175.05 -175.05000000000004) scale(3.89 3.89)">
		<path d="M45,90C20.2,90,0,69.8,0,45S20.2,0,45,0s45,20.2,45,45S69.8,90,45,90z"/>
		<path class="st0" d="M61.9,68.3l5.3-2.7c2.5-1.3,2.8-4.7,0.6-6.4l-8-6c-1.2-0.9-2.8-1-4.1-0.3l-2.3,1.3c-1.1,0.6-2.5,0.7-3.6,0.1
			c-6.1-3.2-10.8-7.9-14-14c-0.6-1.1-0.6-2.5,0.1-3.6l1.3-2.3c0.7-1.3,0.6-2.9-0.3-4.1l-6-8c-1.7-2.3-5.2-2-6.4,0.6l-2.7,5.3
			c-1.2,2.5-1.3,5.4-0.1,7.9C28.4,50.8,39.2,61.6,54,68.4C56.5,69.6,59.4,69.5,61.9,68.3z"/>
	</g>
</g>
</svg>
