<?xml version="1.0" encoding="utf-8"?>
<!-- Generator: Adobe Illustrator 22.1.0, SVG Export Plug-In . SVG Version: 6.00 Build 0)  -->
<svg version="1.1" id="Слой_1" xmlns="http://www.w3.org/2000/svg" xmlns:xlink="http://www.w3.org/1999/xlink" x="0px" y="0px"
	 viewBox="0 0 512 512" style="enable-background:new 0 0 512 512;" xml:space="preserve">
<style type="text/css">
	.st0{fill:#1976D2;}
</style>
<path class="st0" d="M110,40c2.6,0,5.2-1.1,7.1-2.9s2.9-4.4,2.9-7.1s-1.1-5.2-2.9-7.1S112.6,20,110,20s-5.2,1.1-7.1,2.9
	S100,27.4,100,30s1.1,5.2,2.9,7.1S107.4,40,110,40z"/>
<path class="st0" d="M492,20H152c-5.5,0-10,4.5-10,10s4.5,10,10,10h340v84H20V40h47.5c5.5,0,10-4.5,10-10s-4.5-10-10-10H20
	C9,20,0,29,0,40v84c0,11,9,20,20,20h2v318c0,16.5,13.5,30,30,30h408c16.5,0,30-13.5,30-30V144h2c11,0,20-9,20-20V40
	C512,29,503,20,492,20z M470,462c0,5.5-4.5,10-10,10H52c-5.5,0-10-4.5-10-10V144h36v78c0,5.5,4.5,10,10,10s10-4.5,10-10v-78h372V462
	z"/>
<path class="st0" d="M88,246c-2.6,0-5.2,1.1-7.1,2.9S78,253.4,78,256s1.1,5.2,2.9,7.1s4.4,2.9,7.1,2.9s5.2-1.1,7.1-2.9
	s2.9-4.4,2.9-7.1s-1.1-5.2-2.9-7.1S90.6,246,88,246z"/>
<path class="st0" d="M197.5,232h117c18.7,0,34-15.3,34-34s-15.3-34-34-34h-117c-18.7,0-34,15.3-34,34S178.8,232,197.5,232z
	 M197.5,184h117c7.7,0,14,6.3,14,14s-6.3,14-14,14h-117c-7.7,0-14-6.3-14-14S189.8,184,197.5,184z"/>
<path class="st0" d="M376,444h72c5.5,0,10-4.5,10-10v-72c0-5.5-4.5-10-10-10h-72c-5.5,0-10,4.5-10,10v72
	C366,439.5,370.5,444,376,444z M386,372h52v52h-52V372z"/>
<path class="st0" d="M340,352h-72c-5.5,0-10,4.5-10,10v72c0,5.5,4.5,10,10,10h72c5.5,0,10-4.5,10-10v-72
	C350,356.5,345.5,352,340,352z M330,424h-52v-52h52V424z"/>
<path class="st0" d="M160,444h72c5.5,0,10-4.5,10-10v-72c0-5.5-4.5-10-10-10h-72c-5.5,0-10,4.5-10,10v72
	C150,439.5,154.5,444,160,444z M170,372h52v52h-52V372z"/>
</svg>
