<?xml version="1.0" encoding="utf-8"?>
<!-- Generator: Adobe Illustrator 22.1.0, SVG Export Plug-In . SVG Version: 6.00 Build 0)  -->
<svg version="1.1" id="Layer_1" xmlns="http://www.w3.org/2000/svg" xmlns:xlink="http://www.w3.org/1999/xlink" x="0px" y="0px"
	 viewBox="0 0 512 512" style="enable-background:new 0 0 512 512;" xml:space="preserve">
<style type="text/css">
	.st0{fill:#1976D2;}
</style>
<g>
	<g>
		<path class="st0" d="M439.7,95.9h-38.3V57.6c0-5.6-4.6-10.2-10.2-10.2H354V10.2C354,4.6,349.4,0,343.8,0H72.3
			c-5.6,0-10.2,4.6-10.2,10.2v395.7c0,5.6,4.6,10.2,10.2,10.2h37.2v37.2c0,5.6,4.6,10.2,10.2,10.2h38.3v38.3
			c0,5.6,4.6,10.2,10.2,10.2h271.4c5.6,0,10.2-4.6,10.2-10.2V106.1C449.9,100.5,445.3,95.9,439.7,95.9z M109.6,57.6v338h-27V20.4
			h251v27H119.8C114.1,47.4,109.6,52,109.6,57.6z M168.2,95.9c-5.6,0-10.2,4.6-10.2,10.2v337H130v0V67.8h251v28.1
			C381,95.9,168.2,95.9,168.2,95.9z M178.4,491.6V116.3h251v375.3L178.4,491.6L178.4,491.6z"/>
	</g>
</g>
<g>
	<g>
		<path class="st0" d="M387.4,165.7h-3c-5.6,0-10.2,4.6-10.2,10.2c0,5.6,4.6,10.2,10.2,10.2h3c5.6,0,10.2-4.6,10.2-10.2
			C397.6,170.3,393,165.7,387.4,165.7z"/>
	</g>
</g>
<g>
	<g>
		<path class="st0" d="M348.4,165.7H220.6c-5.6,0-10.2,4.6-10.2,10.2c0,5.6,4.6,10.2,10.2,10.2h127.8c5.6,0,10.2-4.6,10.2-10.2
			C358.6,170.3,354,165.7,348.4,165.7z"/>
	</g>
</g>
<g>
	<g>
		<path class="st0" d="M387.4,229.7H220.6c-5.6,0-10.2,4.6-10.2,10.2c0,5.6,4.6,10.2,10.2,10.2h166.8c5.6,0,10.2-4.6,10.2-10.2
			C397.6,234.3,393,229.7,387.4,229.7z"/>
	</g>
</g>
<g>
	<g>
		<path class="st0" d="M387.4,293.8H220.6c-5.6,0-10.2,4.6-10.2,10.2s4.6,10.2,10.2,10.2h166.8c5.6,0,10.2-4.6,10.2-10.2
			C397.6,298.3,393,293.8,387.4,293.8z"/>
	</g>
</g>
<g>
	<g>
		<path class="st0" d="M387.4,358.6H220.6c-5.6,0-10.2,4.6-10.2,10.2s4.6,10.2,10.2,10.2h166.8c5.6,0,10.2-4.6,10.2-10.2
			C397.6,363.2,393,358.6,387.4,358.6z"/>
	</g>
</g>
<g>
	<g>
		<path class="st0" d="M387.4,422.7H220.6c-5.6,0-10.2,4.6-10.2,10.2s4.6,10.2,10.2,10.2h166.8c5.6,0,10.2-4.6,10.2-10.2
			C397.6,427.2,393,422.7,387.4,422.7z"/>
	</g>
</g>
</svg>
