<?xml version="1.0" encoding="utf-8"?>
<!-- Generator: Adobe Illustrator 22.1.0, SVG Export Plug-In . SVG Version: 6.00 Build 0)  -->
<svg version="1.1" id="Capa_1" xmlns="http://www.w3.org/2000/svg" xmlns:xlink="http://www.w3.org/1999/xlink" x="0px" y="0px"
	 viewBox="0 0 512 512" style="enable-background:new 0 0 512 512;" xml:space="preserve">
<style type="text/css">
	.st0{fill:#1976D2;}
</style>
<g>
	<g>
		<path class="st0" d="M392,333.5H80c-5.5,0-10,4.5-10,10c0,5.5,4.5,10,10,10h312c5.5,0,10-4.5,10-10C402,338,397.5,333.5,392,333.5
			z"/>
	</g>
</g>
<g>
	<g>
		<path class="st0" d="M432,333.5c-5.5,0-10,4.5-10,10c0,5.5,4.5,10,10,10s10-4.5,10-10C442,338,437.5,333.5,432,333.5z"/>
	</g>
</g>
<g>
	<g>
		<path class="st0" d="M442,373.5H70c-5.5,0-10,4.5-10,10s4.5,10,10,10h372c5.5,0,10-4.5,10-10S447.5,373.5,442,373.5z"/>
	</g>
</g>
<g>
	<g>
		<path class="st0" d="M511.7,451.9L472,302.2V77.5c0-27.6-22.4-50-50-50H90c-27.6,0-50,22.4-50,50v224.7L0.3,451.9
			c-0.2,0.8-0.3,1.7-0.3,2.6c0,16.5,13.5,30,30,30h452c16.5,0,30-13.5,30-30C512,453.6,511.9,452.8,511.7,451.9z M60,87.5h156
			c5.5,0,10-4.5,10-10s-4.5-10-10-10H61.7c4.1-11.6,15.2-20,28.3-20h332c13,0,24.2,8.4,28.3,20H296c-5.5,0-10,4.5-10,10
			s4.5,10,10,10h156v206H60V87.5z M186.7,464.5l8.2-31h115.3l8.2,31H186.7z M482,464.5H339.2l-11.5-43.6c-1.2-4.4-5.1-7.4-9.7-7.4
			H187.3c-4.5,0-8.5,3.1-9.7,7.4L166,464.5H30c-5.1,0-9.4-3.9-9.9-8.9l37.6-142.1h396.6l37.6,142.1
			C491.4,460.6,487.1,464.5,482,464.5z"/>
	</g>
</g>
<g>
	<g>
		<path class="st0" d="M263.1,70.4c-1.9-1.9-4.4-2.9-7.1-2.9s-5.2,1.1-7.1,2.9s-2.9,4.4-2.9,7.1s1.1,5.2,2.9,7.1
			c1.9,1.9,4.4,2.9,7.1,2.9s5.2-1.1,7.1-2.9c1.9-1.9,2.9-4.4,2.9-7.1S264.9,72.3,263.1,70.4z"/>
	</g>
</g>
</svg>
